<?xml version="1.0" standalone="no"?><!DOCTYPE svg PUBLIC "-//W3C//DTD SVG 1.1//EN" "http://www.w3.org/Graphics/SVG/1.1/DTD/svg11.dtd"><svg t="1609068721963" class="icon" viewBox="0 0 1024 1024" version="1.1" xmlns="http://www.w3.org/2000/svg" p-id="7095" xmlns:xlink="http://www.w3.org/1999/xlink" width="64" height="64"><defs><style type="text/css"></style></defs><path d="M682.871669 633.987309c0 57.20691 46.984081 103.750969 104.732319 103.750969 57.747215 0 104.732319-46.544059 104.732319-103.750969L892.336308 522.256598c0-57.20691-46.985104-103.749946-104.732319-103.749946-57.748239 0-104.732319 46.543036-104.732319 103.749946L682.871669 633.987309zM731.209584 522.256598c0-30.800493 25.301246-55.865355 56.393381-55.865355 31.093159 0 56.393381 25.064862 56.393381 55.865355l0 111.729687c0 30.800493-25.301246 55.866379-56.393381 55.866379-31.093159 0-56.393381-25.065885-56.393381-55.866379L731.209584 522.256598z" p-id="7096"></path><path d="M956.786179 633.987309c0-13.217023-10.819416-23.941272-24.170492-23.941272-13.351076 0-24.168446 10.725272-24.168446 23.941272 0 66.011436-54.208623 119.710452-120.844276 119.710452-66.6377 0-120.845299-53.699016-120.845299-119.710452 0-13.217023-10.819416-23.941272-24.169469-23.941272-13.351076 0-24.168446 10.725272-24.168446 23.941272 0 84.268242 63.164598 154.00349 145.012721 165.683507l0 65.759703-56.393381 0c-13.351076 0-24.168446 10.725272-24.168446 23.943318 0 13.217023 10.81737 23.941272 24.168446 23.941272L868.166839 913.315108c13.351076 0 24.168446-10.725272 24.168446-23.941272 0-13.218046-10.81737-23.943318-24.168446-23.943318l-56.395428 0 0-65.759703C893.621581 787.989775 956.786179 718.254527 956.786179 633.987309z" p-id="7097"></path><path d="M634.532731 522.256598c0-12.801561 1.918699-25.145703 5.282307-36.894282-11.154038-3.163039-22.61916-5.940292-34.361599-8.351202 51.614541-36.162618 85.472674-95.626941 85.472674-162.878624 0-110.014626-90.350774-199.519126-201.408149-199.519126s-201.408149 89.5045-201.408149 199.519126c0 69.347414 35.939537 130.481773 90.293469 166.251442C196.677405 528.959254 62.533218 693.586708 62.533218 888.747573c0 13.220093 10.81737 23.941272 24.168446 23.941272 13.351076 0 24.169469-10.721179 24.169469-23.941272 0-206.829626 169.858596-375.095957 378.646829-375.095957 53.881165 0 102.084003 6.859221 145.014768 19.569708L634.532731 522.256598zM489.517963 465.767026c-84.402295 0-153.070234-68.022233-153.070234-151.634536 0-83.610256 68.667939-151.634536 153.070234-151.634536 84.404342 0 153.070234 68.02428 153.070234 151.634536C642.589221 397.74377 573.922305 465.767026 489.517963 465.767026z" p-id="7098"></path></svg>