<?xml version="1.0" standalone="no"?><!DOCTYPE svg PUBLIC "-//W3C//DTD SVG 1.1//EN" "http://www.w3.org/Graphics/SVG/1.1/DTD/svg11.dtd"><svg t="1609068494589" class="icon" viewBox="0 0 1024 1024" version="1.1" xmlns="http://www.w3.org/2000/svg" p-id="1906" xmlns:xlink="http://www.w3.org/1999/xlink" width="64" height="64"><defs><style type="text/css"></style></defs><path d="M511.800156 0.399844C229.110582 0.399844 0.000078 229.510348 0.000078 512.199922s229.110504 511.800078 511.800078 511.800078 511.800078-229.110504 511.800078-511.800078S794.38977 0.399844 511.800156 0.399844z m310.978524 822.778602c-40.384225 40.384225-87.465834 72.171808-139.845373 94.263178-54.178836 22.891058-111.756345 34.486529-171.133151 34.486529-59.376806 0-116.954315-11.595471-171.133151-34.486529-52.379539-22.191332-99.361187-53.878954-139.845373-94.263178-40.384225-40.384225-72.171808-87.465834-94.263178-139.845373-22.891058-54.178836-34.486529-111.756345-34.486529-171.133151s11.595471-116.954315 34.486529-171.133151c22.191332-52.379539 53.878954-99.361187 94.263178-139.845373 40.384225-40.384225 87.465834-72.171808 139.845373-94.263179 54.078875-22.991019 111.656384-34.58649 171.133151-34.586489 59.376806 0 116.954315 11.595471 171.133151 34.486528 52.379539 22.191332 99.361187 53.878954 139.845373 94.263179 40.384225 40.384225 72.171808 87.465834 94.263179 139.845373 22.891058 54.178836 34.486529 111.756345 34.486528 171.133151s-11.595471 116.954315-34.486528 171.133151c-22.191332 52.4795-53.878954 99.561109-94.263179 139.945334z" p-id="1907"></path><path d="M679.534635 210.91761H343.965717c-20.791878 0-37.885201 17.193284-37.885202 37.985162v526.494339c0 20.791878 16.993362 37.685279 37.785241 37.685279 7.597032 0 14.894182-2.898868 20.392034-7.996877l141.144865-130.648965L659.942288 805.885201c5.397891 4.598204 12.195236 7.097228 19.292464 7.097228 20.791878 0 37.585318-16.893401 37.585318-37.685279V248.902772c0.099961-20.791878-16.493557-37.985162-37.285435-37.985162zM656.94346 724.816868L523.895431 611.561109c-5.597813-4.798126-12.395158-7.097228-19.392424-7.097228-7.29715 0-14.69426 2.698946-20.392035 7.996877L366.057087 721.718079V270.894182h290.886373v453.922686z" p-id="1908"></path></svg>