<?xml version="1.0" standalone="no"?><!DOCTYPE svg PUBLIC "-//W3C//DTD SVG 1.1//EN" "http://www.w3.org/Graphics/SVG/1.1/DTD/svg11.dtd"><svg t="1608555322921" class="icon" viewBox="0 0 1024 1024" version="1.1" xmlns="http://www.w3.org/2000/svg" p-id="4477" xmlns:xlink="http://www.w3.org/1999/xlink" width="200" height="200"><defs><style type="text/css"></style></defs><path d="M687 913.94c-7.2 0-13.9-2.1-19.5-5.7l-358.3-232.5H162c-19.9 0-36-16.1-36-36v-258.9c0.6-17.2 16.5-31.1 36-31.1h148l85.41-55.672 68.576 68.426-17.452-17.424L343.7 413.64H198v190h132.5l320.5 208 1-261.434-188.014-187.712L721 618.947l2 258.994c0 19.9-16.1 36-36 36-7.2 0-13.9-2.1-19.5-5.7l-358.3-232.5H162c-19.9 0-36-16.1-36-36v-258.9c0.6-17.2 16.5-31.1 36-31.1h148l85.41-55.673 68.576 68.426-17.452-17.424L343.7 413.64H198v190h132.5l320.5 208 1-261.434-188.014-187.712L721 618.947l2 258.994c0 19.9-16.1 36-36 36zM653.995 419.559L650 213.84l-121.916 79.295L476 240.84c-4.72 2.725 10.28-7.275 45-30 25.99-16.717 74.323-48.05 145-94 3.954-2.534 10.62-4.534 20-6 24 10.73 36 22.73 36 36v341l-68.005-68.282z" fill="#0B0307" p-id="4478"></path><path d="M295.578251 182.073994m12.727922-12.727922l29.698485-29.698485q12.727922-12.727922 25.455844 0l522.551911 522.551911q12.727922 12.727922 0 25.455844l-29.698485 29.698485q-12.727922 12.727922-25.455844 0l-522.551911-522.551911q-12.727922-12.727922 0-25.455844Z" fill="#0B0307" p-id="4479"></path></svg>