<?xml version="1.0" standalone="no"?><!DOCTYPE svg PUBLIC "-//W3C//DTD SVG 1.1//EN" "http://www.w3.org/Graphics/SVG/1.1/DTD/svg11.dtd"><svg t="1608465524939" class="icon" viewBox="0 0 1024 1024" version="1.1" xmlns="http://www.w3.org/2000/svg" p-id="14640" xmlns:xlink="http://www.w3.org/1999/xlink" width="200" height="200"><defs><style type="text/css"></style></defs><path d="M808.61866667 177.152a36.63644445 36.52266667 0 1 0 73.27288888 0 36.63644445 36.52266667 0 1 0-73.27288888 0Z" fill="#d81e06" p-id="14641"></path><path d="M402.54577778 703.03288889c6.71288889 0 13.08444445-1.82044445 18.432-5.12l262.94044444-153.14488889c12.40177778-5.91644445 21.04888889-18.54577778 21.04888889-33.22311111 0-13.53955555-7.28177778-25.37244445-18.20444444-31.63022222L429.73866667 330.18311111c-6.59911111-7.62311111-16.384-12.40177778-27.19288889-12.40177778-20.02488889 0-36.18133333 16.384-36.18133333 36.52266667 0 0.68266667 0 1.36533333 0.11377777 2.048l-0.45511111 0.22755555 0.56888889 306.06222223c-0.11377778 1.25155555-0.22755555 2.50311111-0.22755555 3.86844444 0 20.13866667 16.27022222 36.52266667 36.18133333 36.52266667z" fill="#d81e06" p-id="14642"></path><path d="M964.608 278.30044445c-6.144-11.94666667-18.54577778-20.25244445-32.88177778-20.25244445-20.25244445 0-36.63644445 16.384-36.63644444 36.52266667 0 6.82666667 1.93422222 13.312 5.23377777 18.77333333l-0.11377777 0.11377778c30.60622222 59.61955555 47.90044445 127.20355555 47.90044444 198.76977777 0 240.75377778-195.24266667 435.99644445-435.99644444 435.99644445S76.00355555 752.98133333 76.00355555 512.22755555 271.24622222 76.34488889 512 76.34488889c71.11111111 0 138.24 17.06666667 197.51822222 47.21777778l0.22755556-0.45511112c5.23377778 2.95822222 11.37777778 4.66488889 17.86311111 4.6648889 20.25244445 0 36.63644445-16.384 36.63644444-36.52266667 0-14.90488889-8.98844445-27.76177778-21.95911111-33.45066667C673.10933333 22.64177778 594.944 2.84444445 512 2.84444445 230.62755555 2.84444445 2.61688889 230.96888889 2.61688889 512.22755555S230.62755555 1021.61066667 512 1021.61066667s509.38311111-228.01066667 509.38311111-509.38311112c0-84.30933333-20.48-163.84-56.77511111-233.9271111z" fill="#d81e06" p-id="14643"></path></svg>