<?xml version="1.0" standalone="no"?><!DOCTYPE svg PUBLIC "-//W3C//DTD SVG 1.1//EN" "http://www.w3.org/Graphics/SVG/1.1/DTD/svg11.dtd"><svg t="1608464002924" class="icon" viewBox="0 0 1024 1024" version="1.1" xmlns="http://www.w3.org/2000/svg" p-id="8429" xmlns:xlink="http://www.w3.org/1999/xlink" width="200" height="200"><defs><style type="text/css"></style></defs><path d="M518.4 0c-102.4 0-192 83.2-192 185.6H83.2c-25.6 0-51.2 19.2-51.2 51.2s19.2 51.2 51.2 51.2h51.2v550.4c0 102.4 70.4 185.6 153.6 185.6h441.6c89.6 0 153.6-83.2 153.6-185.6V288h51.2c25.6 0 51.2-19.2 51.2-51.2s-19.2-51.2-51.2-51.2H704C710.4 83.2 627.2 0 518.4 0zM416 185.6c6.4-51.2 44.8-96 102.4-96s96 38.4 102.4 96H416zM294.4 934.4c-32 0-64-38.4-64-96V288h569.6v550.4c0 57.6-32 96-64 96H294.4z" fill="#999999" p-id="8430"></path><path d="M358.4 812.8c25.6 0 38.4-25.6 38.4-51.2V473.6c6.4-25.6-12.8-51.2-38.4-51.2S320 448 320 473.6v288c0 32 19.2 51.2 38.4 51.2z m147.2 0c25.6 0 38.4-25.6 38.4-51.2V473.6c0-25.6-19.2-51.2-38.4-51.2s-38.4 25.6-38.4 51.2v288c0 32 19.2 51.2 38.4 51.2z m160 0c25.6 0 38.4-25.6 38.4-51.2V473.6c0-25.6-19.2-51.2-38.4-51.2s-44.8 25.6-44.8 51.2v288c0 32 19.2 51.2 44.8 51.2z" fill="#999999" p-id="8431"></path></svg>