<?xml version="1.0" standalone="no"?><!DOCTYPE svg PUBLIC "-//W3C//DTD SVG 1.1//EN" "http://www.w3.org/Graphics/SVG/1.1/DTD/svg11.dtd"><svg t="1608639589681" class="icon" viewBox="0 0 1024 1024" version="1.1" xmlns="http://www.w3.org/2000/svg" p-id="10653" width="64" height="64" xmlns:xlink="http://www.w3.org/1999/xlink"><defs><style type="text/css"></style></defs><path d="M512 1024C230.4 1024 0 793.6 0 512S230.4 0 512 0s512 230.4 512 512-230.4 512-512 512z m0-972.8C258.56 51.2 51.2 258.56 51.2 512s207.36 460.8 460.8 460.8 460.8-207.36 460.8-460.8S765.44 51.2 512 51.2z" p-id="10654"></path><path d="M256 422.4h125.44v256c15.36-12.8 33.28-33.28 53.76-53.76l10.24 46.08c-30.72 33.28-66.56 61.44-102.4 89.6l-15.36-38.4c7.68-5.12 12.8-15.36 12.8-25.6V460.8H256v-38.4z m69.12-174.08c35.84 25.6 69.12 56.32 99.84 89.6l-28.16 28.16c-30.72-33.28-64-64-99.84-89.6l28.16-28.16z m312.32 527.36l-10.24-40.96h69.12c20.48 0 28.16-10.24 28.16-30.72V307.2H448v-40.96H768V716.8c0 38.4-20.48 58.88-61.44 58.88h-69.12zM460.8 376.32h225.28v40.96H460.8v-40.96z m20.48 102.4h181.76v181.76h-181.76v-181.76z m140.8 145.92v-107.52h-102.4v107.52h102.4z" p-id="10655"></path></svg>