<?xml version="1.0" standalone="no"?><!DOCTYPE svg PUBLIC "-//W3C//DTD SVG 1.1//EN" "http://www.w3.org/Graphics/SVG/1.1/DTD/svg11.dtd"><svg t="1608028091250" class="icon" viewBox="0 0 1024 1024" version="1.1" xmlns="http://www.w3.org/2000/svg" p-id="6213" xmlns:xlink="http://www.w3.org/1999/xlink" width="200" height="200"><defs><style type="text/css"></style></defs><path d="M983.770632 312.686163a510.536596 510.536596 0 0 0-109.713913-162.742872A510.536596 510.536596 0 0 0 512.000005 0.00041a510.536596 510.536596 0 0 0-362.056714 149.942881A510.536596 510.536596 0 0 0 0.00041 512.000005a510.536596 510.536596 0 0 0 149.942881 362.056714A510.536596 510.536596 0 0 0 512.000005 1023.9996a510.536596 510.536596 0 0 0 362.056714-149.942881A510.536596 510.536596 0 0 0 1023.9996 512.000005c0-69.143945-13.482989-136.118892-40.228968-199.313842zM920.916682 684.689868a443.781649 443.781649 0 0 1-95.084925 141.019889 441.90365 441.90365 0 0 1-313.709752 129.949897c-59.903953 0-118.051907-11.775991-172.689863-34.864972a443.781649 443.781649 0 0 1-141.043889-95.084925A441.90365 441.90365 0 0 1 68.438356 512.000005c0-59.879953 11.799991-118.051907 34.864972-172.689863a443.781649 443.781649 0 0 1 95.084925-141.019889A441.90365 441.90365 0 0 1 512.122005 68.340356c59.879953 0 118.052907 11.775991 172.665863 34.864972a443.781649 443.781649 0 0 1 141.043889 95.085925A441.90365 441.90365 0 0 1 955.781654 512.000005c0 59.878953-11.775991 118.051907-34.864972 172.689863z" p-id="6214"></path><path d="M388.754102 730.452832l345.429727-219.135826-345.429727-219.134827z" p-id="6215"></path></svg>