<?xml version="1.0" standalone="no"?><!DOCTYPE svg PUBLIC "-//W3C//DTD SVG 1.1//EN" "http://www.w3.org/Graphics/SVG/1.1/DTD/svg11.dtd"><svg t="1608639647186" class="icon" viewBox="0 0 1024 1024" version="1.1" xmlns="http://www.w3.org/2000/svg" p-id="10876" width="64" height="64" xmlns:xlink="http://www.w3.org/1999/xlink"><defs><style type="text/css"></style></defs><path d="M512 63.792781c-247.538298 0-448.207219 200.668921-448.207219 448.207219s200.668921 448.207219 448.207219 448.207219 448.207219-200.668921 448.207219-448.207219S759.538298 63.792781 512 63.792781zM311.352568 239.788816c38.844626 29.282872 71.713155 58.565743 98.605588 88.446225l-38.844626 39.442235c-23.904385-28.087652-56.772914-57.968134-99.203198-89.043834L311.352568 239.788816zM320.914322 768.673334l-21.513947-50.796818c9.561754-8.366535 14.940241-19.123508 14.940241-31.075701L314.340616 467.478083l-82.470128 0 0-54.382476 136.852604 0 0 248.605604c14.940241-14.342631 30.478091-30.478091 46.613551-47.21116l14.940241 60.956182C395.615525 710.107591 359.161338 741.183291 320.914322 768.673334zM458.364536 670.067746 458.364536 474.051789l196.015957 0 0 196.015957L458.364536 670.067746zM440.436247 420.864532l0-54.382476 234.262973 0 0 54.382476L440.436247 420.864532zM761.950226 717.876516c0 44.223112-23.904385 66.334668-71.115545 66.334668l-65.737059 0-14.342631-54.382476 68.127497 1.195219c17.928289 0 26.892433-10.159364 26.892433-29.282872L705.774921 309.111532 426.691226 309.111532l0-53.784866 335.259 0L761.950226 717.876516z" p-id="10877"></path><path d="M512.747012 523.653388l88.446225 0 0 96.812759-88.446225 0 0-96.812759Z" p-id="10878"></path></svg>